<?xml version="1.0" encoding="utf-8"?>
<!-- Generator: Adobe Illustrator 16.0.0, SVG Export Plug-In . SVG Version: 6.00 Build 0)  -->
<!DOCTYPE svg PUBLIC "-//W3C//DTD SVG 1.0//EN" "http://www.w3.org/TR/2001/REC-SVG-20010904/DTD/svg10.dtd">
<svg version="1.0" id="Layer_1" xmlns="http://www.w3.org/2000/svg" xmlns:xlink="http://www.w3.org/1999/xlink" x="0px" y="0px"
	 width="100px" height="100px" viewBox="0 0 100 100" enable-background="new 0 0 100 100" xml:space="preserve">
<polygon fill="#29B6F6" points="14.447,70 10,83.334 17.027,83.334 21.471,70 "/>
<polygon fill="#29B6F6" points="29.638,70 25.195,83.334 32.221,83.334 36.667,70 "/>
<polygon fill="#29B6F6" points="44.833,70 40.391,83.334 47.416,83.334 51.861,70 "/>
<polygon fill="#29B6F6" points="60.029,70 55.586,83.334 62.609,83.334 67.059,70 "/>
<polygon fill="#29B6F6" points="75.225,70 70.781,83.334 77.807,83.334 82.252,70 "/>
<path fill="#29B6F6" d="M73.333,30c-3.263-7.832-10.985-13.334-20-13.334c-12.421,0-22.825,8.502-25.794,20h-4.206
	C15.971,36.666,10,42.637,10,50s5.971,13.334,13.333,13.334h50C82.539,63.334,90,55.873,90,46.666C90,37.461,82.539,30,73.333,30z
	 M73.333,56.666h-50c-3.679,0-6.667-2.994-6.667-6.668c0-3.678,2.988-6.666,6.667-6.666h10c0-11.049,8.955-20,20-20
	c7.702,0,13.991,5.853,14.831,13.332h5.169c5.515,0,10,4.486,10,10C83.333,52.182,78.848,56.666,73.333,56.666z"/>
</svg>
