<svg xmlns="http://www.w3.org/2000/svg" xmlns:xlink="http://www.w3.org/1999/xlink" width="64" height="64" viewBox="0 0 64 64"><defs><path id="a" d="M.06 64V.04H64V64z"/></defs><g fill="none" fill-rule="evenodd"><mask id="b" fill="#fff"><use xlink:href="#a"/></mask><path fill="#4C5665" d="M64 32c0 17.673-14.327 32-32 32C14.327 64 0 49.673 0 32 0 14.327 14.327 0 32 0c17.673 0 32 14.327 32 32" mask="url(#b)"/><path fill="#414A55" d="M17.851 33.101A10 10 0 0 1 12.049 23a10.008 10.008 0 0 0 7.973 8.804c-.087.266-.167.534-.237.806a9.503 9.503 0 0 0-1.934.491"/><path fill="#D5915B" d="M32 22c0 5.523-4.477 10-10 10s-10-4.477-10-10 4.477-10 10-10 10 4.477 10 10"/><path fill="#414A55" d="M48.667 50h-27.5C16.104 50 12 46.083 12 41.25c0-3.715 2.428-6.882 5.851-8.149A9.966 9.966 0 0 0 22 34c5.523 0 10-4.477 10-10 0-.337-.017-.671-.049-1 .025-.261.041-.524.047-.79l.001-.081A15.521 15.521 0 0 1 34 22c8.1 0 14.667 6.268 14.667 14C52.717 36 56 39.134 56 43s-3.283 7-7.333 7"/><path fill="#3A4048" d="M22 34a9.966 9.966 0 0 1-4.149-.899 9.503 9.503 0 0 1 1.934-.491c.07-.272.15-.54.237-.806a10 10 0 0 0 1.844.195H21.892a.155.155 0 0 0 .022.001h.102c5.178-.008 9.434-3.952 9.935-9 .032.329.049.663.049 1 0 5.523-4.477 10-10 10"/><path fill="#AE7A51" d="M22 32h-.011H22m-.014 0h-.01.01m.03 0c5.446-.009 9.87-4.37 9.982-9.79-.006.266-.022.529-.047.79-.501 5.048-4.757 8.992-9.935 9m-.04 0h-.011.011m-.014 0h-.022.022m-.024 0h-.022.022m-.024 0l-.022-.001a.155.155 0 0 0 .022.001m-.024-.001h-.023.023m-.024 0"/><path fill="#414A55" d="M32 21.989v-.002.002"/><path fill="#AE7A51" d="M20.022 31.804a9.937 9.937 0 0 1-3.624-1.52 9.444 9.444 0 0 1 2.386-.674c1.478-5.66 6.552-9.958 12.778-10.538.282.923.437 1.901.438 2.915V22l-.001.129c-5.673.74-10.302 4.583-11.977 9.675"/><path fill="#34393E" d="M21.989 32h-.003.003m-.024 0h-.003.003m-.025 0h-.002.002m-.024 0h-.002.002m-.024-.001h-.002.002"/><path fill="#906747" d="M22 32H21.94 21.914l-.022-.001H21.866a10 10 0 0 1-1.844-.195c1.675-5.092 6.304-8.935 11.977-9.675l-.001.081c-.112 5.42-4.536 9.781-9.982 9.79H22"/><path fill="#FFFFFE" d="M48.667 34c0-7.732-6.567-14-14.667-14-6.873 0-12.625 4.519-14.215 10.61-4.406.638-7.785 4.257-7.785 8.64 0 4.833 4.104 8.75 9.167 8.75h27.5C52.717 48 56 44.866 56 41s-3.283-7-7.333-7"/></g></svg>